<?xml version="1.0" standalone="no"?>
<!DOCTYPE svg PUBLIC "-//W3C//DTD SVG 20010904//EN"
 "http://www.w3.org/TR/2001/REC-SVG-20010904/DTD/svg10.dtd">
<svg version="1.0" xmlns="http://www.w3.org/2000/svg"
 width="277.000000pt" height="131.000000pt" viewBox="0 0 277.000000 131.000000"
 preserveAspectRatio="xMidYMid meet">

<g transform="translate(0.000000,131.000000) scale(0.100000,-0.100000)"
fill="#000000" stroke="none">
<path d="M20 1290 c0 -9 601 -1244 610 -1253 7 -8 120 262 120 287 0 5 -102
225 -227 488 l-227 477 -138 3 c-76 2 -138 1 -138 -2z"/>
<path d="M736 1033 c69 -142 207 -426 307 -631 l181 -372 57 147 58 147 -228
480 -229 481 -135 3 -136 3 125 -258z"/>
<path d="M1470 1261 c0 -10 10 -13 64 -26 44 -9 75 -34 99 -79 22 -41 22 -46
22 -511 0 -457 -1 -471 -21 -510 -25 -48 -70 -81 -124 -90 -22 -4 -40 -11 -40
-16 0 -5 120 -9 285 -9 165 0 285 4 285 9 0 5 -18 12 -40 16 -55 9 -101 43
-125 90 -17 35 -20 66 -23 253 l-4 214 28 29 c15 16 31 29 35 29 9 0 269 -329
330 -419 88 -129 79 -175 -35 -196 -92 -18 -14 -25 264 -25 280 0 354 7 268
25 -53 11 -122 53 -171 103 -25 26 -152 184 -281 352 l-236 305 192 188 c199
196 246 235 300 246 17 4 33 12 36 19 3 9 -41 12 -188 12 -149 0 -191 -3 -188
-12 3 -7 13 -14 24 -16 44 -7 73 -26 85 -54 10 -26 10 -35 -5 -62 -9 -18 -116
-131 -237 -252 l-221 -219 4 230 c4 212 6 233 25 271 24 45 55 70 99 79 54 13
64 16 64 26 0 5 -115 9 -285 9 -170 0 -285 -4 -285 -9z"/>
</g>
</svg>
